<svg version="1.1" xmlns="http://www.w3.org/2000/svg" style="display: block;" viewBox="0 0 1155 2048" width="375" height="665" preserveAspectRatio="none">
<path transform="translate(0,0)" fill="rgb(18,106,187)" d="M 391.444 819.436 C 411.446 807.595 434.746 798.807 454.119 785.864 C 455.838 784.567 457.673 782.025 457.867 779.888 C 459.915 757.415 455.93 733.313 458.578 710.914 C 459.476 703.322 479.89 686.949 486.135 681.297 L 521.588 648.745 C 534.011 637.337 552.875 617.569 566.182 607.8 C 567.113 622.254 566.599 640.527 566.575 655.231 L 566.422 734.948 C 566.386 750.584 562.525 780.013 573.387 790.812 C 582.166 799.54 597.378 794.438 607.104 799.794 C 614.09 804.926 612.042 822.021 624.656 823.49 C 633.206 820.786 636.496 811.705 644.527 816.221 C 654.876 822.041 660.53 832.679 672.637 835.299 C 682.841 837.507 700.443 841.629 710.666 839.821 C 730.855 836.249 740.597 830.274 762.155 830.994 C 774.166 830.323 795.234 842.125 806.36 837.398 C 818.705 832.154 840.337 819.996 850.444 811.954 C 872.326 794.543 881.596 802.603 907.188 799.661 C 913.246 798.964 922.895 786.392 930.68 792.058 C 943.535 801.853 959.458 814.907 971.241 826.062 C 973.403 828.11 977.367 834.511 977.691 836.876 C 980.465 857.068 969.743 859.377 979.235 882.778 C 990.804 884.125 1001.42 882.776 1012.39 884.387 C 1035.59 904.567 1023.97 901.42 1012.9 926.796 C 1006.12 927.291 1000.66 927.636 993.935 928.842 C 999.364 943.814 1010.71 980.195 1012.88 996.27 C 1003.97 1018.11 1003.7 1017.9 1022.01 1031.79 C 1027.01 1047.68 1027.59 1048.8 1038.28 1061.51 C 1034.09 1067.85 1021.12 1086.89 1012.5 1081.1 C 1008.51 1078.42 1006.74 1070.95 1005.28 1066.34 C 997.599 1068.47 989.164 1071.37 981.025 1070.89 C 968.468 1070.16 949.657 1055.48 937.859 1062.75 C 935.026 1064.49 930.478 1072.78 925.378 1076.94 C 921.611 1074.69 917.071 1071.82 913.187 1069.96 C 910.27 1071.04 904.951 1072.84 902.37 1074.31 C 875.959 1089.3 851.035 1071.03 824.865 1090.08 C 808.424 1102.06 788.682 1109.8 768.308 1108.31 C 761.29 1107.89 751.931 1109.42 745.289 1105.68 C 726.265 1094.97 725.325 1086.08 705.165 1105.09 C 704.907 1075.89 704.892 1046.68 705.121 1017.48 C 705.173 1002.72 705.814 982.156 704.697 967.958 C 658.878 929.495 610.973 887.925 564.593 850.81 C 555.975 855.796 537.515 871.85 529.126 878.797 C 506.533 897.283 484.192 916.073 462.107 935.162 C 452.064 943.833 431.906 959.864 423.828 968.725 C 422.732 985.655 423.544 1003.5 423.443 1020.54 C 423.227 1057.09 424.22 1094.06 423.627 1130.57 C 412.684 1124.07 399.966 1115.33 389.448 1108.26 C 346.348 1079.3 357.22 1111.42 343.246 1136.44 C 341.229 1135.09 337.066 1132.16 335.067 1131.1 C 320.333 1140.09 295.557 1149.32 281.997 1130.5 C 278.362 1125.45 278.246 1113.66 276.888 1107.23 C 272.539 1108.08 268.132 1108.87 263.847 1109.97 C 251.13 1103.2 246.435 1101.83 242.136 1087.88 L 241.989 1087.39 C 225.157 1087.49 208.553 1087.73 191.445 1087.78 C 166.295 1087.84 182.365 1079.3 184.533 1067.67 C 186.595 1056.62 186.02 1035.64 185.484 1023.93 C 175.645 1019.45 149.052 1010.38 143.504 1000.86 C 141.389 997.237 141.255 981.092 146.41 978.17 C 155.072 978.857 166.242 1000.23 175.507 989.556 C 175.017 981.899 164.856 980.637 166.841 972.489 C 172.438 966.82 179.232 969.521 179.888 963.383 C 178.277 960.659 177.485 959.678 175.481 957.238 C 173.621 939.878 172.227 935.544 184.629 922.331 C 167.513 920.683 156.934 922.046 139.965 923.538 C 139.883 913.949 140.931 904.385 143.087 895.041 C 150.051 887.523 164.83 872.466 172.865 866.317 C 181.708 865.941 188.008 865.816 196.823 866.269 C 205.024 875.185 207.422 875.58 219.578 876.343 C 223.206 874.509 226.801 872.609 230.36 870.643 C 241.701 872.612 254.711 871.456 262.697 872.867 C 266.792 871.846 272.44 872.123 276.778 872.137 C 272.277 868.697 267.597 866.009 262.869 862.368 L 262.711 860.393 C 267.597 856.179 282.962 856.839 289.624 857.084 C 295.052 856.774 301.523 856.857 306.378 854.692 L 307.734 853.103 C 303.987 848.437 296.206 848.351 290.932 845.834 C 285.501 843.242 280.509 839.372 274.934 837.17 C 272.123 836.06 268.99 835.481 265.998 835.152 C 256.492 834.107 210.799 832.749 204.857 837.791 C 200.701 841.319 199.531 847.543 195.553 851.198 C 189.056 857.168 156.924 856.589 147.049 856.253 C 144.4 856.163 141.71 856.208 139.396 854.797 C 139.568 846.068 145.057 836.997 147.613 828.838 C 148.758 825.182 148.792 820.842 149.422 817.223 C 184.979 802.414 151.849 793.664 154.051 783.36 C 157.302 779.395 171.405 766.8 176.571 766.619 C 180.65 766.475 191.652 767.576 196.196 768.191 L 203.885 774.16 C 211.463 773.029 221.63 770.444 228.385 773.593 C 232.988 777.481 234.137 790.713 239.82 800.255 C 262.049 813.995 279.61 823.274 306.883 825.966 C 314.626 826.731 326.903 825.096 334.18 826.436 C 354.035 830.093 366.71 834.926 387.335 833.761 C 388.55 829.292 389.903 823.703 391.444 819.436 z"/>
<path transform="translate(0,0)" fill="rgb(9,81,158)" d="M 276.778 872.137 C 272.277 868.697 267.597 866.009 262.869 862.368 L 262.711 860.393 C 267.597 856.179 282.962 856.839 289.624 857.084 C 287.943 858.657 287.961 858.548 285.733 859.299 L 281.454 858.345 L 281.328 858.538 C 282.099 858.816 283.911 859.385 284.476 859.805 C 283.275 859.039 282.021 859.046 280.639 858.983 C 272.69 865.677 279.548 865.691 276.284 872.101 C 272.866 874.465 266.747 873.416 262.697 872.867 C 266.792 871.846 272.44 872.123 276.778 872.137 z"/>
<path transform="translate(0,0)" fill="rgb(24,154,223)" d="M 562.459 896.463 C 565.265 896.752 567.614 898.535 569.704 900.341 C 598.722 925.414 627.118 951.219 656.675 975.661 C 661.19 979.395 664.714 982.302 668.429 986.889 C 670.651 1002.41 671.268 1133.13 668.062 1143.01 C 661.437 1146.83 602.025 1145.15 591.37 1143.86 L 590.931 1070.34 C 583.848 1070.77 572.385 1070.24 564.982 1070.12 C 555.865 1070.55 545.704 1071.27 536.698 1070.57 C 535.675 1094.67 535.996 1119.8 535.976 1144 C 513.238 1145.82 481.943 1144.31 458.499 1143.84 C 457.417 1115.21 458.771 1085.95 458.343 1057.25 C 458.017 1035.4 457.911 1013.31 458.619 991.475 C 458.835 984.796 465.028 980.69 469.402 976.343 C 493.174 955.063 517.659 934.465 541.771 913.569 C 548.245 907.959 555.501 901.196 562.459 896.463 z"/>
<path transform="translate(0,0)" fill="rgb(9,81,158)" d="M 178.803 1278.46 C 199.147 1278.44 219.261 1278.18 239.586 1279.33 C 307.73 1283.21 322.022 1383.26 274.447 1420.65 C 262.523 1428.98 244.497 1434.53 228.702 1434.94 C 213.336 1435.34 182.002 1439.05 167.836 1431.48 C 164.669 1429.04 164.393 1418.42 164.407 1414.85 C 164.627 1374.7 163.674 1334.44 164.578 1294.31 C 164.89 1280.48 165.675 1278.85 178.803 1278.46 z M 190.958 1414.27 C 212.259 1414.4 246.934 1417.67 261.692 1399.32 C 281.509 1377.56 282.736 1334.29 261.151 1312.5 C 243.217 1294.4 212.066 1302.02 189.511 1299.23 C 189.656 1333.39 188.835 1381.05 190.958 1414.27 z"/>
<path transform="translate(0,0)" fill="rgb(24,154,223)" d="M 949.394 1323.32 C 979.869 1318.21 1005.28 1341.73 1007.05 1371.81 C 1009.22 1408.55 996.223 1434.35 957.252 1437.72 C 943.495 1439.02 929.762 1435.04 918.823 1426.6 C 889.045 1403.16 891.813 1342.69 928.674 1327.78 C 936.395 1324.66 941.23 1324.26 949.394 1323.32 z M 961.924 1417.22 C 971.249 1412.41 978.407 1406.15 980.836 1395.67 C 987.218 1368.15 979.727 1339.24 946.881 1343.16 C 925.174 1348.21 920.47 1374.96 925.261 1393.92 C 930.423 1414.35 942.583 1418.5 961.924 1417.22 z"/>
<path transform="translate(0,0)" fill="rgb(24,154,223)" d="M 803.093 1276.3 C 823.845 1274.6 858.009 1275.26 869.804 1295.42 C 872.03 1299.23 873.088 1303.51 871.921 1307.8 C 862.22 1319.38 849.533 1304.27 839.22 1301.38 C 782.356 1285.44 758.488 1327.69 768.07 1378.25 C 770.414 1390.62 777.356 1401.5 787.95 1408.47 C 808.668 1421.85 829.947 1417.19 852.067 1412.37 C 851.702 1398.47 852.042 1383.97 852.163 1370.04 L 838.976 1370.25 C 831.507 1370.36 819.697 1371.63 814.715 1366.78 C 814.472 1364.95 814.281 1363.11 814.143 1361.27 C 813.876 1357.51 814.114 1355.55 816.636 1352.65 C 823.13 1349.33 864.888 1351.2 873.622 1352.19 C 875.27 1372.99 874.196 1394.47 874.2 1415.37 C 874.202 1429.44 868.088 1429.83 856.249 1433.1 C 830.747 1440.14 796.351 1440.94 772.973 1426.7 C 735.06 1403.62 731.766 1339.76 754.156 1304.9 C 766.52 1285.62 782.42 1281.07 803.093 1276.3 z"/>
<path transform="translate(0,0)" fill="rgb(9,81,158)" d="M 369.357 1406.92 C 373.655 1392.25 379.87 1377.12 385.43 1362.29 C 388.341 1354.52 394.905 1327.26 402.837 1324.25 C 409.222 1322.56 418.694 1325.51 420.511 1332.21 C 427.012 1356.17 440.892 1383.5 447.006 1406.89 C 447.125 1406.34 447.252 1405.79 447.388 1405.24 C 448.968 1398.83 451.758 1392.37 454.052 1386.12 C 460.641 1368.14 466.082 1349.68 473.322 1331.97 C 477.027 1322.9 484.316 1322.96 492.552 1325.06 C 500.02 1331.55 491.582 1346.69 487.999 1353.97 C 485.631 1358.97 484.079 1364.85 482.181 1370.09 C 475.587 1388.3 469.446 1408.75 460.46 1425.79 C 457.917 1430.61 454.095 1435.47 448.566 1436.87 C 445.666 1437.61 443.384 1437.22 440.805 1435.74 C 429.483 1429.27 412.704 1372.21 408.508 1357.57 C 399.737 1373.47 387.706 1428.38 374.547 1435.42 C 371.557 1437.01 368.123 1437.43 364.875 1436.36 C 359.208 1434.48 356.505 1429.38 354.148 1424.29 C 347.041 1408.96 342.319 1392.6 336.364 1376.81 C 331.478 1363.86 325.031 1351 321.405 1337.65 C 320.655 1334.88 319.691 1331.19 320.98 1328.47 C 322.343 1325.58 324.416 1325.25 327.132 1324.21 C 330.797 1324.02 335.098 1324.76 338.806 1325.25 C 345.901 1335.49 365.842 1392.47 369.357 1406.92 z"/>
<path transform="translate(0,0)" fill="rgb(9,81,158)" d="M 554.167 1324.39 C 586.202 1322.8 604.308 1334.19 609.689 1368.89 C 610.412 1373.54 610.083 1379.33 606.968 1383.11 C 599.753 1386.92 543.137 1385.26 531.39 1385.19 C 537.096 1410.24 546.905 1421.45 575.342 1416.87 C 582.924 1415.65 588.746 1412.36 595.627 1409.05 C 596.273 1408.78 596.917 1408.52 597.599 1408.35 C 599.824 1407.76 602.192 1408.08 604.182 1409.24 C 609.228 1412.21 607.469 1420.26 604.333 1423.76 C 587.48 1442.6 548.261 1440.96 529.33 1426.07 C 493.814 1398.14 504.718 1329.04 554.167 1324.39 z M 532.087 1371.05 L 564.23 1371.13 C 572.296 1370.98 581.881 1371.05 589.705 1369.72 C 585.564 1350.88 580.491 1339.02 558.146 1340.2 C 539.793 1348.15 536.195 1350.83 532.087 1371.05 z"/>
<path transform="translate(0,0)" fill="rgb(9,81,158)" d="M 695.998 1275.96 C 701.625 1275.85 705.978 1275.22 709.668 1280.1 C 712.61 1289.96 711.949 1413.36 709.842 1431.54 C 709.511 1434.39 702.687 1436.56 699.555 1437.6 C 691.85 1434.04 688.017 1432.41 687.796 1423.11 C 687.532 1411.98 687.361 1400.79 687.466 1389.65 C 687.794 1355.02 686.853 1320.31 687.681 1285.72 C 687.79 1281.18 692.729 1278.15 695.998 1275.96 z"/>
<path transform="translate(0,0)" fill="rgb(9,81,158)" d="M 639.147 1276.11 C 652.834 1275.14 656.908 1277.65 657.119 1292.05 C 657.777 1337.07 657.525 1382.25 657.126 1427.28 C 657.085 1431.87 653.862 1433.81 650.595 1436.51 C 642.234 1437.76 634.646 1436.12 634.415 1425.9 C 633.357 1379.13 633.713 1332.17 633.914 1285.38 C 633.935 1280.48 635.758 1279.04 639.147 1276.11 z"/>
</svg>